<?xml version="1.0" encoding="utf-8"?>
<!-- Generator: Adobe Illustrator 16.0.0, SVG Export Plug-In . SVG Version: 6.00 Build 0)  -->
<!DOCTYPE svg PUBLIC "-//W3C//DTD SVG 1.1//EN" "http://www.w3.org/Graphics/SVG/1.1/DTD/svg11.dtd">
<svg version="1.1" id="Ebene_1" xmlns="http://www.w3.org/2000/svg" xmlns:xlink="http://www.w3.org/1999/xlink" x="0px" y="0px"
	 width="287.995px" height="66.631px" viewBox="0 0 287.995 66.631" enable-background="new 0 0 287.995 66.631"
	 xml:space="preserve">
<g>
	<defs>
		<rect id="SVGID_1_" width="287.995" height="66.631"/>
	</defs>
	<clipPath id="SVGID_2_">
		<use xlink:href="#SVGID_1_"  overflow="visible"/>
	</clipPath>
	<path clip-path="url(#SVGID_2_)" fill="#5A5A5A" d="M92.146,57.683h-3.949l-0.601,1.938h-2.597l3.433-9.862
		c0.265-0.764,0.867-1.175,1.821-1.175c0.938,0,1.541,0.397,1.775,1.16l3.317,9.877h-2.627L92.146,57.683z M91.587,55.819
		l-1.393-4.638l-1.425,4.638H91.587z"/>
	<path clip-path="url(#SVGID_2_)" fill="#5A5A5A" d="M99.36,50.007c0-0.808,0.514-1.307,1.41-1.307h3.8
		c2.143,0,3.449,1.131,3.449,3.185c0,0.881-0.426,1.718-0.954,2.334l-0.602,0.72l2.055,4.681h-2.715l-1.644-3.963h-2.216v3.963
		H99.36V50.007z M104.599,53.809l0.441-0.588c0.264-0.366,0.498-0.778,0.498-1.262c0-0.852-0.41-1.409-1.394-1.409h-2.201v3.259
		H104.599z"/>
	<path clip-path="url(#SVGID_2_)" fill="#5A5A5A" d="M112.241,58.387c0-0.382,0.162-0.748,0.397-1.07l5.107-6.692h-5.225v-1.923
		h7.176c0.822,0,1.204,0.514,1.204,1.232c0,0.382-0.148,0.734-0.411,1.071l-5.064,6.692h5.43v1.923h-7.411
		C112.623,59.62,112.241,59.106,112.241,58.387"/>
	<path clip-path="url(#SVGID_2_)" fill="#5A5A5A" d="M131.108,58.357l-3.449-6.164v7.427h-2.245v-9.437
		c0-1.028,0.675-1.585,1.82-1.585c1.115,0,1.526,0.542,1.893,1.364l3.449,6.148V48.7h2.246v9.423c0,1.042-0.676,1.585-1.821,1.585
		C131.887,59.708,131.476,59.165,131.108,58.357"/>
	<path clip-path="url(#SVGID_2_)" fill="#5A5A5A" d="M139.542,58.299v-8.277c0-0.821,0.528-1.32,1.423-1.32h6.355v1.907h-5.195
		v2.523h4.55v1.851h-4.55v2.729h5.225v1.908h-6.385C140.07,59.62,139.542,59.121,139.542,58.299"/>
</g>
<rect x="151.831" y="48.699" fill="#5A5A5A" width="2.613" height="10.919"/>
<g>
	<defs>
		<rect id="SVGID_3_" width="287.995" height="66.631"/>
	</defs>
	<clipPath id="SVGID_4_">
		<use xlink:href="#SVGID_3_"  overflow="visible"/>
	</clipPath>
	<path clip-path="url(#SVGID_4_)" fill="#5A5A5A" d="M163.554,58.767l-2.158-6.896v7.748h-2.229v-9.407c0-1.071,0.776-1.6,1.921-1.6
		c1.233,0,1.85,0.528,2.07,1.409l1.849,5.973l1.952-5.973c0.235-0.881,0.837-1.409,2.056-1.409c1.1,0,1.804,0.528,1.804,1.57v9.437
		h-2.304v-7.734l-2.201,6.883c-0.176,0.616-0.616,0.925-1.379,0.925C164.199,59.691,163.714,59.397,163.554,58.767"/>
</g>
<rect x="175.538" y="48.699" fill="#5A5A5A" width="2.612" height="10.919"/>
<polygon fill="#5A5A5A" points="185.572,50.666 182.475,50.666 182.475,48.7 191.251,48.7 191.251,50.666 188.155,50.666 
	188.155,59.618 185.572,59.618 "/>
<polygon fill="#5A5A5A" points="197.426,50.666 194.33,50.666 194.33,48.7 203.104,48.7 203.104,50.666 200.009,50.666 
	200.009,59.618 197.426,59.618 "/>
<g>
	<defs>
		<rect id="SVGID_5_" width="287.995" height="66.631"/>
	</defs>
	<clipPath id="SVGID_6_">
		<use xlink:href="#SVGID_5_"  overflow="visible"/>
	</clipPath>
	<path clip-path="url(#SVGID_6_)" fill="#5A5A5A" d="M206.097,58.297V50.02c0-0.821,0.527-1.32,1.424-1.32h6.354v1.907h-5.194v2.523
		h4.55v1.851h-4.55v2.729h5.225v1.908h-6.384C206.624,59.618,206.097,59.119,206.097,58.297"/>
	<path clip-path="url(#SVGID_6_)" fill="#5A5A5A" d="M218.39,58.297v-9.598h2.612v8.835h4.829v2.084h-6.018
		C218.918,59.618,218.39,59.119,218.39,58.297"/>
	<path clip-path="url(#SVGID_6_)" fill="#006EB4" d="M274.767,21.867c0-2.084,0.997-3.172,3.036-3.715
		c2.809-0.815,5.617-1.087,10.192-1.087v5.345c-2.809,0-4.938,0.227-6.659,0.725v16.354h-6.569V21.867z M255.929,26.125h8.063
		c0-2.447-1.179-4.53-4.032-4.53C257.379,21.594,256.246,23.225,255.929,26.125 M269.383,32.964l0.771,4.893l-2.129,0.725
		c-2.72,0.815-4.804,1.313-7.25,1.313c-6.84,0-11.279-3.986-11.279-11.506c0-7.882,4.938-11.552,10.646-11.552
		c6.297,0,10.329,3.579,10.329,11.008c0,1.812-0.815,2.583-2.628,2.583h-11.869c0.408,2.672,1.903,4.122,5.3,4.122
		c1.948,0,3.762-0.272,5.98-0.951L269.383,32.964z M239.553,24.495c0-1.949-1.541-2.764-3.941-2.764
		c-2.401,0-3.896,0.815-3.896,2.764c0,2.129,1.494,2.944,3.896,2.944C237.876,27.438,239.553,26.578,239.553,24.495 M241.818,39.852
		c0-0.997-0.771-1.632-2.447-1.632h-7.248c-0.272,0.317-0.634,1.043-0.634,1.902c0,1.768,1.721,2.312,4.847,2.312
		C240.006,42.434,241.818,41.572,241.818,39.852 M225.6,40.259c0-1.857,0.725-3.171,1.494-4.213l1.813-2.266
		c0.499-0.68,0.68-1.223,0.68-1.858c0-0.815-0.317-1.358-1.177-1.993c-1.18-0.951-2.945-2.446-2.945-5.435
		c0-4.893,3.986-7.114,9.966-7.114h2.174c1.768,0,3.172-0.271,3.942-0.497l5.435-1.586l1.134,4.757l-3.624,1.041
		c0,0,1.313,1.088,1.313,3.399c0,4.62-3.715,6.794-9.785,6.794c-0.952,0-1.631-0.135-1.631-0.135c0.09,0.09,0.317,0.589,0.317,1.132
		c0,0.679-0.362,1.223-0.589,1.495h5.799c5.346,0,7.791,2.22,7.791,5.799c0,4.53-3.805,7.112-11.506,7.112
		C230.039,46.691,225.6,44.88,225.6,40.259 M207.593,26.125h8.063c0-2.447-1.178-4.53-4.031-4.53
		C209.043,21.594,207.91,23.225,207.593,26.125 M221.047,32.964l0.77,4.893l-2.129,0.725c-2.718,0.815-4.802,1.313-7.248,1.313
		c-6.84,0-11.279-3.986-11.279-11.506c0-7.882,4.937-11.552,10.646-11.552c6.297,0,10.329,3.579,10.329,11.008
		c0,1.812-0.815,2.583-2.628,2.583h-11.869c0.408,2.672,1.902,4.122,5.3,4.122c1.948,0,3.761-0.272,5.98-0.951L221.047,32.964z
		 M190.57,9.363l6.716-1.224v31.349h-6.716V9.363z M173.989,22.184h-3.154v-4.938h3.154v-1.178c0-4.892,3.036-7.475,8.063-7.475
		c1.769,0,3.398,0.318,5.346,0.951l-0.724,4.848c-1.269-0.362-2.355-0.68-3.352-0.68c-1.994,0-2.765,0.816-2.765,2.81v0.724h5.443
		v4.938h-5.443v17.305h-6.568V22.184z M156.908,23.361c2.446,0,3.94-1.495,3.94-4.078c0-2.536-1.494-4.076-3.805-4.076h-4.44v8.154
		H156.908z M144.631,13.35c0-2.446,1.541-3.896,4.168-3.896h9.242c6.161,0,10.146,3.76,10.146,9.83
		c0,6.116-4.122,9.876-10.555,9.876h-5.029v10.329h-7.973V13.35z M127.884,36.362c0-2.084,1.36-3.443,3.715-3.443
		c2.311,0,3.715,1.359,3.715,3.443c0,2.175-1.404,3.533-3.715,3.533C129.244,39.896,127.884,38.537,127.884,36.362 M116.149,21.867
		c0-2.084,1.042-3.172,3.035-3.715c2.854-0.815,5.617-1.087,10.238-1.087v5.345c-2.854,0-4.938,0.227-6.659,0.725v16.354h-6.614
		V21.867z M96.806,33.373c4.213,0,6.659-3.034,6.659-8.834c0-5.662-2.537-9.014-6.886-9.014h-3.443v17.848H96.806z M85.027,35.638
		V13.35c0-2.446,1.54-3.896,4.168-3.896h7.837c8.834,0,14.451,5.436,14.451,14.949c0,9.514-5.799,15.086-14.542,15.086h-7.746
		C86.567,39.488,85.027,38.039,85.027,35.638"/>
	<path clip-path="url(#SVGID_6_)" fill="#006EB4" d="M17.545,63.465c1.998,0.855,4.16,1.552,6.491,2.064
		c4.651-3.704,6.009-8.837,6.009-16.009V34.302c0-10.41,3.545-15.143,8.908-15.143c1.501,0,2.762,0.553,3.786,1.265
		c-4.257,3.545-5.44,7.807-5.44,14.431v7.489c8.595-1.26,14.825-7.335,14.825-16.326c0-7.489-4.498-11.669-11.752-11.669
		c-9.933,0-16.008,7.965-16.008,18.452v16.326C24.364,58.711,21.003,62.03,17.545,63.465 M69.787,33.277
		C69.787,12.694,57.8,0,34.855,0C11.905,0,0,12.694,0,33.277C0,45.72,4.354,55.31,12.868,60.939
		c3.376-3.232,4.319-6.936,4.319-12.285v-0.158c-7.254-0.554-10.645-3.474-10.645-7.73c0-1.342,0.553-2.443,1.106-3.309
		c2.521,2.997,5.441,4.257,9.539,4.569v-9.38c0-14.671,9.543-24.686,23.503-24.686c11.116,0,18.764,6.705,18.764,17.745
		c0,12.541-9.774,21.373-22.155,22.949v1.18c0,11.474-3.991,15.434-6.829,16.633c1.414,0.107,2.874,0.164,4.385,0.164
		C57.8,66.631,69.787,53.854,69.787,33.277"/>
</g>
</svg>
